<?xml version="1.0" standalone="no"?>
<!DOCTYPE svg PUBLIC "-//W3C//DTD SVG 20010904//EN"
 "http://www.w3.org/TR/2001/REC-SVG-20010904/DTD/svg10.dtd">
<svg version="1.0" xmlns="http://www.w3.org/2000/svg"
 width="260.000000pt" height="260.000000pt" viewBox="0 0 260.000000 260.000000"
 preserveAspectRatio="xMidYMid meet">
<metadata>
Created by potrace 1.11, written by Peter Selinger 2001-2013
</metadata>
<g transform="translate(0.000000,260.000000) scale(0.100000,-0.100000)"
fill="#000000" stroke="none">
<path d="M565 2350 l-70 -5 0 -60 0 -60 105 2 105 2 -2 -807 c-1 -444 -4 -836
-6 -872 -9 -126 -51 -178 -154 -195 -24 -4 -43 -10 -44 -13 -1 -4 -2 -26 -4
-50 l-2 -42 338 0 339 0 0 66 0 65 -107 -3 -108 -3 4 35 c2 19 4 202 4 406 l1
370 102 0 c139 -1 110 29 377 -402 186 -299 249 -388 330 -472 l62 -62 190 2
190 3 0 44 -1 44 -62 13 c-130 27 -167 65 -367 379 -213 333 -253 392 -299
438 l-45 44 56 13 c174 38 328 135 408 255 60 91 87 183 90 304 3 154 -31 262
-111 351 -87 96 -269 176 -444 195 -30 3 -68 8 -85 12 -39 7 -699 10 -790 3z
m805 -131 c229 -49 344 -206 334 -457 -6 -174 -64 -286 -189 -367 -69 -44
-128 -64 -265 -86 -62 -10 -235 -11 -270 -2 -16 4 -17 37 -15 401 1 332 4 403
17 432 34 77 91 101 233 95 55 -2 125 -9 155 -16z"/>
</g>
</svg>
